<svg width="32" height="32" fill="none" xmlns="http://www.w3.org/2000/svg"><path d="M5.8 26.4c-1.3-1.3-.4-4-1.1-5.7-.7-1.6-3.3-3-3.3-4.8 0-1.8 2.6-3.1 3.3-4.8.7-1.6-.2-4.4 1.1-5.7 1.3-1.4 4-.5 5.7-1.1 1.7-.7 3-3.3 4.8-3.3 1.8 0 3.2 2.6 4.9 3.3 1.6.6 4.4-.3 5.7 1 1.3 1.4.4 4.2 1.1 5.8.7 1.7 3.3 3 3.3 4.8 0 1.8-2.6 3.2-3.3 4.8-.7 1.7.2 4.4-1.1 5.7-1.3 1.4-4.1.5-5.7 1.2-1.7.7-3 3.2-4.9 3.2-1.7 0-3.1-2.5-4.8-3.2-1.6-.7-4.4.2-5.7-1.2Z" stroke="#fff" stroke-width="1.5" stroke-linecap="round" stroke-linejoin="round"/><path d="M16.3 23a.7.7 0 1 0 0-1.4.7.7 0 0 0 0 1.5Z" fill="#fff"/><path d="M16.3 18.2v-1.1a4 4 0 1 0-4-4" stroke="#fff" stroke-width="1.5" stroke-linecap="round" stroke-linejoin="round"/></svg>