<svg width="30" height="30" fill="none" xml:space="preserve" xmlns="http://www.w3.org/2000/svg"><path style="fill:#7ddfcb;fill-opacity:1;stroke-width:.102435" d="M15 0a15 15 0 1 1 0 30 15 15 0 0 1 0-30z"/><path d="M15.4 6h3c0 1.2.4 2.3 1.2 3.1.9.9 2 1.3 3.2 1.4v3a8 8 0 0 1-4.4-1.4v6.5A5.6 5.6 0 0 1 13 24c-1 .1-2.1-.2-3-.7a5.6 5.6 0 0 1 3.7-10.4v3.3c-.7-.2-1.6-.1-2.2.3-.5.3-.9.8-1 1.3-.2.4-.2.8-.2 1.2.2 1.2 1.4 2.3 2.7 2.2.8 0 1.6-.5 2-1.2.2-.3.3-.5.3-.8v-4l.1-9z" style="fill:#2e2e61;fill-opacity:1;stroke-width:.560609"/></svg>