<svg width="30" height="30" fill="none" xml:space="preserve" xmlns="http://www.w3.org/2000/svg"><path style="fill:#7ddfcb;fill-opacity:1" d="M145.7 0a145.7 145.7 0 1 1 0 291.3 145.7 145.7 0 0 1 0-291.3Z" transform="matrix(.10244 0 0 .10244 0 0)"/><path style="fill:#2e2e61;fill-opacity:1" d="M196 63.7H95.3a31.7 31.7 0 0 0-31.7 31.7v100.5a31.7 31.7 0 0 0 31.7 31.7h100.5a31.7 31.7 0 0 0 31.7-31.7V95.4A31.7 31.7 0 0 0 196 63.7ZM206 82h3.5v27.2l-27.4.1-.1-27.2h24zm-60.3 36.2c22.7 0 27.4 21.4 27.4 27.5a27.5 27.5 0 0 1-54.9 0c0-6.1 4.7-27.5 27.5-27.5zm64 75.8c0 8.6-7 15.7-15.8 15.7H97.1c-8.7 0-15.7-7-15.7-15.7v-66.6H104a52.2 52.2 0 0 0-3.3 18.3 44.9 44.9 0 0 0 89.6 0c0-6-1.2-13-3.3-18.3h22.5V194z" transform="matrix(.10244 0 0 .10244 0 0)"/></svg>