<svg width="346" height="29" fill="none" xmlns="http://www.w3.org/2000/svg"><path opacity=".6" d="M.6 23.9h5.6v-1h-4C3.7 21.8 6 20 6 18c0-1.6-1-2.5-2.7-2.5-1.5 0-2.6.9-2.7 2.7h1c.1-1 .7-1.8 1.8-1.8s1.5.7 1.5 1.6c0 1.7-2 3.4-4.3 5.2v.8Zm6.8-4.3c0 2.5.6 4.3 3 4.3 2.3 0 2.9-1.8 2.9-4.3 0-2.4-.6-4.2-3-4.2-2.3 0-2.9 1.8-2.9 4.2Zm4.8 0c0 1.9-.2 3.4-1.8 3.4-1.7 0-2-1.5-2-3.4 0-1.7.3-3.2 2-3.2 1.6 0 1.8 1.5 1.8 3.2ZM83.3 23.9h5.6v-1h-4c1.5-1.2 3.8-3 3.8-5 0-1.6-1-2.5-2.7-2.5-1.5 0-2.6.9-2.7 2.7h1c.1-1 .7-1.8 1.8-1.8s1.5.7 1.5 1.6c0 1.7-2 3.4-4.3 5.2v.8Zm8.4-4.3c-1 .2-1.6 1-1.6 2 0 1.6 1.2 2.6 3 2.6s3-1 3-2.5c0-1-.6-1.8-1.6-2.1a2 2 0 0 0 1.3-2c0-1.2-.9-2.2-2.7-2.2-1.9 0-2.8 1-2.8 2.2a2 2 0 0 0 1.4 2Zm1.4-.4c-1 0-1.8-.6-1.8-1.4 0-1 .7-1.5 1.8-1.5 1 0 1.7.5 1.7 1.5 0 .8-.7 1.4-1.7 1.4Zm0 .8c1 0 2 .6 2 1.6s-.8 1.7-2 1.7-2-.7-2-1.7.9-1.6 2-1.6ZM124.2 17.6h1c.1-.8.7-1.3 1.7-1.3s1.5.5 1.5 1.3c0 1-.7 1.4-2.1 1.5h-.3v.8h.3c1.5 0 2.3.5 2.3 1.7 0 .8-.5 1.5-1.7 1.5-1 0-1.7-.7-1.8-1.6h-1c0 1.7 1.3 2.5 2.9 2.5 1.7 0 2.6-1 2.6-2.3 0-1.2-.6-2-1.6-2.2.9-.2 1.5-1 1.5-2 0-1.2-1-2.1-2.6-2.1-1.5 0-2.6.8-2.7 2.2Zm7.7 6.3h1v-8.4h-2.1v1h1v7.4ZM289 24h1v-2h1.2v-.9H290v-5.5h-1.2l-4.1 5.7v.8h4.3v1.8Zm-3-2.9 3-4.4v4.4h-3Zm6.6-5.6v4.8h1c.3-.7.9-1.1 1.7-1.1 1.2 0 1.9.7 1.9 1.9 0 1.1-.6 2-1.9 2-1 0-1.7-.6-1.9-1.4h-1c.2 1.3 1.2 2.3 2.9 2.3 2 0 2.9-1.3 2.9-3 0-1.3-.7-2.8-2.7-2.8-.9 0-1.6.4-2 .9v-2.7h4.1v-.9h-5Z" fill="#fff"/><path d="M3.8 3.4h72.8" stroke="#FB4F72" stroke-width="5.8" stroke-linecap="round"/><path d="M84 3.4h33.5" stroke="#FF9D75" stroke-width="5.8" stroke-linecap="round"/><path d="M284.5 3.4h57.7" stroke="#FB4F72" stroke-width="5.8" stroke-linecap="round"/><path d="M125.3 3.4h151.3" stroke="#7DDFCB" stroke-width="5.8" stroke-linecap="round"/></svg>